<svg width="240" height="388" viewBox="0 0 240 388" fill="none" xmlns="http://www.w3.org/2000/svg">
<rect x="240" y="388" width="240" height="388" rx="16" transform="rotate(-180 240 388)" fill="url(#paint0_linear)"/>
<path d="M186.732 65.0198C186.237 61.8177 185.285 58.7299 183.839 55.9089C183.497 55.1846 183.04 54.4984 182.888 54.3459C182.469 53.9266 181.556 53.8885 181.023 54.2316C180.643 54.4603 180.262 55.1084 180.262 55.5277C180.262 55.6421 180.605 56.4426 181.061 57.3194C183.078 61.3983 183.877 64.7911 183.877 69.175C183.877 73.7114 182.964 77.4473 180.871 81.4881C180.338 82.4792 180.262 82.7461 180.338 83.0892C180.452 83.661 180.947 84.2328 181.442 84.3853C181.67 84.4615 181.899 84.4615 181.975 84.4615C182.051 84.4234 182.203 84.4234 182.317 84.4234C182.774 84.4234 183.307 83.6991 184.144 81.9074C185.552 78.9721 186.427 75.9605 186.884 72.6059C187.074 70.7761 187.036 67.0021 186.732 65.0198Z" fill="#7A7A76"/>
<path d="M179.349 62.1607C178.816 60.5597 177.484 57.7768 177.065 57.3956C176.457 56.8238 175.277 56.9382 174.782 57.5862C174.287 58.3105 174.326 58.5774 175.163 60.3309C176.457 62.9232 176.951 64.7149 177.218 67.5739C177.56 71.0048 176.875 74.5119 175.277 77.7903C174.896 78.5528 174.554 79.3152 174.478 79.5058C174.249 80.192 174.82 81.1069 175.543 81.3356C176.647 81.6787 177.446 80.84 178.55 78.2097C180.795 73.0252 181.023 67.4214 179.349 62.1607Z" fill="#7A7A76"/>
<path d="M170.14 60.0641C169.645 60.0641 169.493 60.1404 169.112 60.4834C168.389 61.1696 168.389 61.5127 169.264 63.2663C171.243 67.269 171.205 71.1954 169.188 75.2744C168.656 76.3799 168.541 76.723 168.579 77.0279C168.694 77.5235 169.074 78.0191 169.531 78.2097C169.721 78.2859 170.102 78.3622 170.292 78.3241C171.015 78.2097 171.357 77.8285 172.08 76.3799C173.336 73.8258 173.793 71.9579 173.793 69.2131C173.793 66.5447 173.336 64.448 172.157 62.0464C171.434 60.4834 170.977 60.0641 170.14 60.0641Z" fill="#7A7A76"/>
<path d="M164.317 62.9232C163.442 63.0756 162.833 64.0287 163.061 64.7911C163.099 64.9817 163.366 65.4391 163.594 65.8585C164.317 67.0402 164.469 67.6502 164.469 69.175C164.469 70.6998 164.317 71.3098 163.594 72.4915C163.023 73.4064 162.909 73.7876 163.061 74.2451C163.176 74.6644 163.594 75.16 163.975 75.3125C164.774 75.6556 165.535 75.2744 166.22 74.207C168.161 71.1954 168.161 67.1546 166.22 64.143C165.535 63.1138 165.04 62.8088 164.317 62.9232Z" fill="#7A7A76"/>
<path d="M16.6719 345.367C16.6719 347.094 18 348.266 19.8906 348.266C21.9297 348.266 23.1719 347.008 23.1719 344.859V336.727H21.7656V344.852C21.7656 346.234 21.0859 346.969 19.8828 346.969C18.8203 346.969 18.1016 346.312 18.0703 345.367H16.6719ZM33.9406 348H35.4172L31.2609 336.727H29.8703L25.7141 348H27.1906L28.3234 344.773H32.8078L33.9406 348ZM30.5031 338.547H30.6281L32.3938 343.578H28.7375L30.5031 338.547ZM41.5375 348V343.148L45.5375 336.727H43.9359L40.8969 341.734H40.7719L37.7328 336.727H36.1313L40.1313 343.148V348H41.5375ZM18.8438 356.977H21.5547C23.0078 356.977 23.8828 357.781 23.8828 359.133C23.8828 360.516 23.0625 361.289 21.6172 361.289H18.8438V356.977ZM18.8438 362.539H21.6172L24.0312 367H25.6797L23.0703 362.32C24.4844 361.875 25.3359 360.656 25.3359 359.086C25.3359 357.055 23.9141 355.727 21.7422 355.727H17.4375V367H18.8438V362.539ZM33.4328 355.461C30.2453 355.461 28.2531 357.734 28.2531 361.359C28.2531 364.969 30.1984 367.266 33.4328 367.266C36.6516 367.266 38.5891 364.961 38.5891 361.359C38.5891 357.742 36.6359 355.461 33.4328 355.461ZM33.4328 356.758C35.7375 356.758 37.1438 358.539 37.1438 361.359C37.1438 364.156 35.7453 365.969 33.4328 365.969C31.0891 365.969 29.6984 364.156 29.6984 361.359C29.6984 358.539 31.1359 356.758 33.4328 356.758ZM46.2328 367C48.6313 367 50.0531 365.82 50.0531 363.836C50.0531 362.344 49.0766 361.289 47.5375 361.094V360.969C48.6234 360.773 49.4828 359.711 49.4828 358.539C49.4828 356.812 48.2172 355.727 46.1469 355.727H41.8344V367H46.2328ZM43.2406 356.969H45.85C47.2484 356.969 48.0609 357.633 48.0609 358.781C48.0609 359.977 47.1938 360.586 45.4906 360.586H43.2406V356.969ZM43.2406 365.758V361.797H45.8891C47.6859 361.797 48.6078 362.461 48.6078 363.766C48.6078 365.07 47.7172 365.758 46.0219 365.758H43.2406ZM54.5563 367V355.727H53.15V367H54.5563ZM59.6219 367V358.258H59.7469L65.8641 367H67.2313V355.727H65.8406V364.5H65.7156L59.5984 355.727H58.2313V367H59.6219ZM70.3672 364.055C70.5156 366 72.1641 367.266 74.5547 367.266C77.1328 367.266 78.7656 365.945 78.7656 363.875C78.7656 362.219 77.8281 361.312 75.4922 360.727L74.3125 360.414C72.7578 360.016 72.1406 359.508 72.1406 358.625C72.1406 357.484 73.1328 356.734 74.6328 356.734C76.0391 356.734 76.9922 357.422 77.1875 358.578H78.6016C78.4844 356.758 76.8594 355.461 74.6797 355.461C72.2969 355.461 70.6953 356.758 70.6953 358.672C70.6953 360.273 71.5781 361.195 73.6172 361.711L75.0625 362.086C76.6172 362.477 77.3203 363.086 77.3203 364.047C77.3203 365.164 76.2031 365.984 74.6875 365.984C73.0859 365.984 71.9609 365.234 71.7891 364.055H70.3672Z" fill="#E2D9CD"/>
<path d="M157.737 367.652V363.481C157.761 363.13 157.711 362.778 157.588 362.448C157.466 362.118 157.274 361.819 157.027 361.569C156.78 361.319 156.482 361.124 156.154 360.998C155.825 360.872 155.474 360.818 155.123 360.839C154.663 360.808 154.204 360.902 153.793 361.11C153.382 361.318 153.034 361.632 152.786 362.021C152.56 361.644 152.237 361.336 151.85 361.128C151.464 360.919 151.028 360.82 150.589 360.839C150.207 360.819 149.826 360.9 149.484 361.073C149.143 361.246 148.853 361.506 148.642 361.826V361.005H147.196V367.652H148.656V363.995C148.625 363.768 148.645 363.536 148.713 363.318C148.782 363.099 148.898 362.898 149.054 362.729C149.209 362.56 149.4 362.428 149.613 362.342C149.825 362.255 150.054 362.217 150.283 362.229C151.243 362.229 151.729 362.855 151.729 363.981V367.68H153.19V363.995C153.16 363.768 153.18 363.537 153.249 363.319C153.319 363.101 153.435 362.9 153.59 362.732C153.745 362.563 153.936 362.431 154.148 362.344C154.359 362.257 154.588 362.218 154.817 362.229C155.804 362.229 156.277 362.855 156.277 363.981V367.68L157.737 367.652ZM179.34 361.005H176.962V358.989H175.502V361.005H174.181V362.326H175.53V365.386C175.53 366.929 176.128 367.847 177.838 367.847C178.477 367.849 179.104 367.671 179.646 367.333L179.229 366.095C178.841 366.326 178.401 366.455 177.95 366.47C177.254 366.47 176.99 366.025 176.99 365.358V362.326H179.354L179.34 361.005ZM191.675 360.839C191.322 360.828 190.974 360.913 190.665 361.084C190.357 361.256 190.1 361.507 189.923 361.812V361.005H188.491V367.652H189.937V363.926C189.937 362.827 190.41 362.215 191.327 362.215C191.637 362.211 191.944 362.268 192.231 362.382L192.676 360.991C192.346 360.873 191.998 360.812 191.647 360.811L191.675 360.839ZM173.027 361.534C172.208 361.047 171.267 360.806 170.315 360.839C168.632 360.839 167.534 361.645 167.534 362.966C167.534 364.051 168.34 364.718 169.828 364.927L170.524 365.024C171.316 365.135 171.692 365.344 171.692 365.719C171.692 366.234 171.163 366.526 170.176 366.526C169.382 366.549 168.603 366.304 167.965 365.831L167.27 366.957C168.112 367.545 169.121 367.848 170.148 367.819C172.067 367.819 173.18 366.915 173.18 365.65C173.18 364.385 172.304 363.87 170.857 363.661L170.162 363.564C169.536 363.481 169.036 363.355 169.036 362.91C169.036 362.465 169.509 362.132 170.301 362.132C171.034 362.14 171.752 362.337 172.387 362.702L173.027 361.534ZM211.763 360.839C211.41 360.828 211.061 360.913 210.753 361.084C210.444 361.256 210.188 361.507 210.01 361.812V361.005H208.578V367.652H210.024V363.926C210.024 362.827 210.497 362.215 211.415 362.215C211.724 362.211 212.031 362.268 212.319 362.382L212.764 360.991C212.434 360.873 212.086 360.812 211.735 360.811L211.763 360.839ZM193.128 364.315C193.111 364.782 193.192 365.248 193.365 365.682C193.538 366.116 193.799 366.509 194.133 366.837C194.467 367.164 194.865 367.418 195.303 367.582C195.741 367.747 196.208 367.818 196.674 367.791C197.543 367.836 198.396 367.553 199.066 366.999L198.371 365.831C197.871 366.212 197.261 366.422 196.633 366.429C196.098 366.385 195.599 366.143 195.236 365.748C194.872 365.354 194.67 364.837 194.67 364.301C194.67 363.765 194.872 363.248 195.236 362.854C195.599 362.46 196.098 362.217 196.633 362.173C197.261 362.18 197.871 362.39 198.371 362.771L199.066 361.603C198.396 361.049 197.543 360.767 196.674 360.811C196.208 360.784 195.741 360.856 195.303 361.02C194.865 361.184 194.467 361.438 194.133 361.766C193.799 362.093 193.538 362.486 193.365 362.92C193.192 363.355 193.111 363.82 193.128 364.287V364.315ZM206.673 364.315V361.005H205.227V361.812C204.981 361.496 204.664 361.243 204.301 361.074C203.938 360.904 203.541 360.824 203.141 360.839C202.219 360.839 201.334 361.205 200.682 361.857C200.03 362.509 199.664 363.393 199.664 364.315C199.664 365.237 200.03 366.121 200.682 366.773C201.334 367.425 202.219 367.791 203.141 367.791C203.541 367.806 203.938 367.726 204.301 367.556C204.664 367.387 204.981 367.134 205.227 366.818V367.625H206.673V364.315ZM201.291 364.315C201.314 363.924 201.451 363.548 201.685 363.233C201.919 362.919 202.24 362.68 202.608 362.546C202.977 362.411 203.376 362.387 203.758 362.477C204.139 362.567 204.486 362.767 204.756 363.051C205.025 363.335 205.206 363.693 205.275 364.078C205.344 364.464 205.299 364.862 205.145 365.222C204.991 365.583 204.735 365.89 204.409 366.107C204.082 366.324 203.7 366.441 203.308 366.443C203.032 366.446 202.759 366.393 202.506 366.285C202.252 366.178 202.023 366.02 201.834 365.82C201.645 365.62 201.499 365.383 201.405 365.124C201.312 364.865 201.273 364.59 201.291 364.315ZM183.839 360.839C182.917 360.851 182.038 361.23 181.395 361.891C180.752 362.552 180.398 363.442 180.411 364.364C180.424 365.286 180.803 366.165 181.464 366.808C182.125 367.45 183.014 367.804 183.936 367.791C184.937 367.843 185.92 367.521 186.697 366.888L186.001 365.817C185.452 366.257 184.772 366.502 184.068 366.512C183.59 366.553 183.115 366.406 182.744 366.102C182.372 365.799 182.134 365.362 182.08 364.885H187.016C187.016 364.704 187.016 364.524 187.016 364.329C187.016 362.243 185.723 360.852 183.86 360.852L183.839 360.839ZM183.839 362.132C184.055 362.127 184.271 362.165 184.472 362.244C184.674 362.322 184.858 362.44 185.014 362.59C185.171 362.74 185.296 362.919 185.383 363.117C185.47 363.315 185.517 363.528 185.522 363.745H182.045C182.07 363.299 182.269 362.88 182.599 362.578C182.929 362.277 183.364 362.117 183.811 362.132H183.839ZM220.072 364.329V358.335H218.681V361.812C218.435 361.496 218.118 361.243 217.755 361.074C217.393 360.904 216.995 360.824 216.595 360.839C215.673 360.839 214.789 361.205 214.137 361.857C213.485 362.509 213.118 363.393 213.118 364.315C213.118 365.237 213.485 366.121 214.137 366.773C214.789 367.425 215.673 367.791 216.595 367.791C216.995 367.806 217.393 367.726 217.755 367.556C218.118 367.387 218.435 367.134 218.681 366.818V367.625H220.072V364.329ZM214.725 364.329C214.748 363.938 214.885 363.562 215.119 363.247C215.353 362.933 215.674 362.694 216.042 362.559C216.41 362.425 216.81 362.401 217.191 362.491C217.573 362.581 217.919 362.78 218.189 363.065C218.459 363.349 218.639 363.706 218.708 364.092C218.778 364.478 218.733 364.876 218.579 365.236C218.425 365.597 218.169 365.904 217.842 366.121C217.516 366.338 217.133 366.454 216.741 366.456C216.466 366.46 216.193 366.406 215.939 366.299C215.685 366.192 215.457 366.034 215.267 365.834C215.078 365.634 214.932 365.397 214.839 365.138C214.745 364.879 214.706 364.604 214.725 364.329ZM165.893 364.329V361.005H164.447V361.812C164.201 361.496 163.884 361.243 163.521 361.074C163.158 360.904 162.761 360.824 162.361 360.839C161.439 360.839 160.554 361.205 159.902 361.857C159.25 362.509 158.884 363.393 158.884 364.315C158.884 365.237 159.25 366.121 159.902 366.773C160.554 367.425 161.439 367.791 162.361 367.791C162.761 367.806 163.158 367.726 163.521 367.556C163.884 367.387 164.201 367.134 164.447 366.818V367.625H165.893V364.329ZM160.511 364.329C160.534 363.938 160.671 363.562 160.905 363.247C161.139 362.933 161.46 362.694 161.828 362.559C162.197 362.425 162.596 362.401 162.978 362.491C163.359 362.581 163.706 362.78 163.976 363.065C164.245 363.349 164.426 363.706 164.495 364.092C164.564 364.478 164.519 364.876 164.365 365.236C164.211 365.597 163.955 365.904 163.629 366.121C163.302 366.338 162.92 366.454 162.528 366.456C162.251 366.462 161.977 366.41 161.721 366.304C161.466 366.197 161.236 366.039 161.045 365.839C160.854 365.639 160.707 365.401 160.612 365.141C160.518 364.881 160.479 364.605 160.497 364.329H160.511Z" fill="#E2D9CD"/>
<path d="M194.449 310.353H172.547V349.714H194.449V310.353Z" fill="#FF5F00"/>
<path d="M173.938 330.037C173.934 326.246 174.792 322.504 176.449 319.093C178.105 315.683 180.516 312.694 183.498 310.353C179.805 307.451 175.371 305.647 170.701 305.146C166.031 304.645 161.315 305.468 157.09 307.521C152.866 309.574 149.305 312.773 146.813 316.754C144.321 320.735 143 325.337 143 330.034C143 334.73 144.321 339.332 146.813 343.313C149.305 347.294 152.866 350.494 157.09 352.547C161.315 354.6 166.031 355.422 170.701 354.922C175.371 354.421 179.805 352.616 183.498 349.714C180.517 347.374 178.107 344.386 176.45 340.977C174.794 337.568 173.935 333.827 173.938 330.037V330.037Z" fill="#EB001B"/>
<path d="M224 330.037C224 334.734 222.678 339.336 220.186 343.317C217.694 347.298 214.132 350.498 209.907 352.551C205.682 354.603 200.965 355.425 196.295 354.924C191.625 354.422 187.19 352.617 183.498 349.714C186.478 347.372 188.888 344.383 190.545 340.974C192.201 337.565 193.062 333.824 193.062 330.034C193.062 326.243 192.201 322.502 190.545 319.093C188.888 315.684 186.478 312.695 183.498 310.353C187.19 307.45 191.625 305.645 196.295 305.143C200.965 304.642 205.682 305.464 209.907 307.516C214.132 309.569 217.694 312.769 220.186 316.75C222.678 320.731 224 325.333 224 330.03V330.037Z" fill="#F79E1B"/>
<mask id="mask0" mask-type="alpha" maskUnits="userSpaceOnUse" x="117" y="52" width="32" height="34">
<rect x="117" y="52" width="32" height="34" rx="4" fill="#F6F7F6"/>
</mask>
<g mask="url(#mask0)">
<rect x="117.5" y="52.5" width="31" height="33" rx="3.5" fill="#F6F7F6" stroke="#F2F2F2"/>
<rect x="137" y="52" width="1" height="34" fill="#C4C4C4"/>
<rect x="128" y="52" width="1" height="34" fill="#C4C4C4"/>
<rect x="117" y="62" width="1" height="32" transform="rotate(-90 117 62)" fill="#C4C4C4"/>
<rect x="117" y="77" width="1" height="32" transform="rotate(-90 117 77)" fill="#C4C4C4"/>
<path d="M125.5 51.5L140.5 51.5L140.5 59C140.5 62.0376 138.038 64.5 135 64.5L131 64.5C127.962 64.5 125.5 62.0376 125.5 59L125.5 51.5Z" fill="#F6F7F6" stroke="#C4C4C4"/>
<path d="M140.5 86.5L125.5 86.5L125.5 79C125.5 75.9624 127.962 73.5 131 73.5L135 73.5C138.038 73.5 140.5 75.9624 140.5 79L140.5 86.5Z" fill="#F6F7F6" stroke="#C4C4C4"/>
</g>
<circle cx="28" cy="32" r="10" stroke="#E2D9CD" stroke-opacity="0.5" stroke-width="4"/>
<defs>
<linearGradient id="paint0_linear" x1="360" y1="388" x2="360" y2="776" gradientUnits="userSpaceOnUse">
<stop stop-color="#11191F"/>
<stop offset="1" stop-color="#18272B"/>
</linearGradient>
</defs>
</svg>
